<?xml version="1.0" encoding="UTF-8" standalone="no"?>
<svg
   xmlns:dc="http://purl.org/dc/elements/1.1/"
   xmlns:cc="http://creativecommons.org/ns#"
   xmlns:rdf="http://www.w3.org/1999/02/22-rdf-syntax-ns#"
   xmlns:svg="http://www.w3.org/2000/svg"
   xmlns="http://www.w3.org/2000/svg"
   xml:space="preserve"
   enable-background="new 0 0 595.28 841.89"
   viewBox="0 0 435.1388 306.11532"
   height="306.11533"
   width="435.13882"
   y="0px"
   x="0px"
   id="Layer_1"
   version="1.1"><metadata
     id="metadata31"><rdf:RDF><cc:Work
         rdf:about=""><dc:format>image/svg+xml</dc:format><dc:type
           rdf:resource="http://purl.org/dc/dcmitype/StillImage" /><dc:title></dc:title></cc:Work></rdf:RDF></metadata><defs
     id="defs29" /><g
     transform="translate(-12.500545,-73.393549)"
     id="text840"
     style="font-style:normal;font-variant:normal;font-weight:500;font-stretch:normal;font-size:96px;line-height:16.79999924px;font-family:'Cormorant Garamond';-inkscape-font-specification:'Cormorant Garamond Medium';font-variant-ligatures:normal;font-variant-caps:normal;font-variant-numeric:normal;font-feature-settings:normal;text-align:start;writing-mode:lr-tb;text-anchor:start;opacity:1;fill:none;fill-opacity:1;stroke:#000000;stroke-width:2.4000001;stroke-linecap:round;stroke-linejoin:miter;stroke-miterlimit:10;stroke-dasharray:none;stroke-dashoffset:0;stroke-opacity:1;paint-order:normal"
     aria-label="it
a
lic"><g
       id="text870"
       style="font-style:italic;font-variant:normal;font-weight:bold;font-stretch:normal;font-size:108.74434662px;line-height:107.38503265px;font-family:Avara;-inkscape-font-specification:'Avara Bold Italic';font-variant-ligatures:normal;font-variant-caps:normal;font-variant-numeric:normal;font-feature-settings:normal;text-align:start;writing-mode:lr-tb;text-anchor:start;opacity:1;fill:#000000;fill-opacity:1;stroke:none;stroke-width:2.4000001;stroke-linecap:round;stroke-linejoin:miter;stroke-miterlimit:10;stroke-dasharray:none;stroke-dashoffset:0;stroke-opacity:1;paint-order:normal"
       aria-label="Avara
italic
is here!"><path
         id="path895"
         style="stroke-width:2.4000001"
         d="m 42.948962,164.7388 -8.699548,-8.69955 13.049322,-17.39909 h 26.098643 l 4.349774,4.34977 v 13.04932 l -8.699548,8.69955 h 30.448417 l -8.699547,-8.69955 V 73.393549 L 77.747153,82.093097 V 86.44287 L 25.549867,156.03925 12.500545,164.7388 Z M 77.747153,95.142418 v 34.798192 l -4.349774,4.34977 H 51.64851 l 4.349774,-8.69954 z" /><path
         id="path897"
         style="stroke-width:2.4000001"
         d="m 160.47782,121.24106 -4.34978,13.04932 -17.39909,17.3991 -13.04933,4.34977 h -4.34977 l 26.09864,-39.14796 v -8.69955 l -8.69954,-4.34977 -13.04933,4.34977 -21.74886,21.74887 4.34977,4.34977 21.74887,-21.74887 h 4.34977 l -26.09864,43.49774 v 4.34978 l 4.34977,4.34977 h 8.69955 l 21.74887,-8.69955 17.3991,-17.39909 8.69954,-17.3991 v -8.69955 l -4.34977,-4.34977 h -8.69955 l -4.34977,8.69955 4.34977,4.34977 z" /><path
         id="path899"
         style="stroke-width:2.4000001"
         d="m 238.73128,108.19174 -4.34978,-4.34977 -8.69954,13.04932 -4.34978,-8.69955 -17.39909,-4.34977 -21.74887,17.39909 -8.69955,21.74887 4.34977,17.3991 8.69955,4.34977 h 8.69955 l 13.04932,-13.04932 v 8.69955 l 4.34977,4.34977 13.04933,-4.34977 21.74886,-21.74887 -4.34977,-4.34978 -21.74887,21.74887 h -4.34977 z m -43.49774,47.84751 h -4.34978 l -4.34977,-13.04932 8.69955,-17.39909 13.04932,-13.04933 h 8.69955 l 4.34977,8.69955 v 4.34978 l -13.04932,17.39909 z" /><path
         id="path901"
         style="stroke-width:2.4000001"
         d="m 247.50727,129.94061 4.34977,4.34977 21.74887,-21.74887 h 4.34978 l -26.09865,47.84752 4.34978,4.34977 h 8.69955 l 17.39909,-34.79819 13.04932,-8.69955 h 13.04932 l 4.34978,-13.04932 -8.69955,-4.34977 -8.69955,4.34977 -13.04932,17.3991 h -4.34977 l 8.69955,-13.04933 v -4.34977 l -4.34978,-4.34977 -13.04932,4.34977 z" /><path
         id="path903"
         style="stroke-width:2.4000001"
         d="m 373.59975,108.19174 -4.34978,-4.34977 -8.69955,13.04932 -4.34977,-8.69955 -17.39909,-4.34977 -21.74887,17.39909 -8.69955,21.74887 4.34977,17.3991 8.69955,4.34977 h 8.69955 l 13.04932,-13.04932 v 8.69955 l 4.34977,4.34977 13.04932,-4.34977 21.74887,-21.74887 -4.34977,-4.34978 -21.74887,21.74887 h -4.34977 z m -43.49774,47.84751 h -4.34978 l -4.34977,-13.04932 8.69955,-17.39909 13.04932,-13.04933 h 8.69955 l 4.34977,8.69955 v 4.34978 l -13.04932,17.39909 z" /><path
         id="path905"
         style="fill:#ff0000;fill-opacity:1;stroke-width:2.4000001"
         d="m 64.697831,202.52745 h 4.349774 l 4.349774,-8.69955 v -4.34977 l -8.699548,-4.34978 h -4.349773 l -4.349774,8.69955 v 4.34977 z m -47.847512,34.79819 4.349774,4.34977 21.748869,-21.74887 h 4.349774 l -26.098643,43.49774 v 4.34978 l 4.349774,4.34977 h 8.699547 l 8.699548,-4.34977 21.748869,-21.74887 -4.349773,-4.34978 -21.74887,21.74887 h -4.349774 l 26.098644,-43.49774 v -4.34977 L 51.64851,211.227 38.599188,215.57677 Z" /><path
         id="path907"
         style="fill:#ff0000;fill-opacity:1;stroke-width:2.4000001"
         d="m 77.687684,263.42428 21.74887,-43.49774 h 13.049326 v -4.34977 H 99.436554 l 8.699546,-17.3991 h -8.699546 l -4.349774,13.04933 -8.699548,4.34977 h -8.699548 v 4.34977 h 8.699548 l -21.748869,43.49774 v 4.34978 l 4.349774,4.34977 h 8.699547 l 8.699548,-4.34977 21.748868,-21.74887 -4.34977,-4.34978 -21.748872,21.74887 z" /><path
         id="path909"
         style="fill:#ff0000;fill-opacity:1;stroke-width:2.4000001"
         d="m 182.02279,215.57677 -4.34978,-4.34977 -8.69954,13.04932 -4.34978,-8.69955 -17.39909,-4.34977 -21.74887,17.39909 -8.69955,21.74887 4.34977,17.3991 8.69955,4.34977 h 8.69955 l 13.04932,-13.04932 v 8.69955 l 4.34978,4.34977 13.04932,-4.34977 21.74887,-21.74887 -4.34978,-4.34978 -21.74887,21.74887 h -4.34977 z m -43.49774,47.84751 h -4.34977 l -4.34978,-13.04932 8.69955,-17.39909 13.04932,-13.04933 h 8.69955 l 4.34977,8.69955 v 4.34978 l -13.04932,17.39909 z" /><path
         id="path911"
         style="fill:#ff0000;fill-opacity:1;stroke-width:2.4000001"
         d="m 203.84813,263.42428 39.14796,-82.6457 h -30.44842 v 4.34977 H 225.597 l -34.79819,78.29593 v 4.34978 l 8.69954,4.34977 13.04932,-4.34977 21.74887,-21.74887 -4.34977,-4.34978 -21.74887,21.74887 z" /><path
         id="path913"
         style="fill:#ff0000;fill-opacity:1;stroke-width:2.4000001"
         d="m 282.18652,202.52745 h 4.34978 l 4.34977,-8.69955 v -4.34977 l -8.69955,-4.34978 h -4.34977 l -4.34977,8.69955 v 4.34977 z m -47.84751,34.79819 4.34978,4.34977 21.74887,-21.74887 h 4.34977 l -26.09864,43.49774 v 4.34978 l 4.34977,4.34977 h 8.69955 l 8.69955,-4.34977 21.74886,-21.74887 -4.34977,-4.34978 -21.74887,21.74887 h -4.34977 l 26.09864,-43.49774 v -4.34977 l -8.69955,-4.34977 -13.04932,4.34977 z" /><path
         id="path915"
         style="fill:#ff0000;fill-opacity:1;stroke-width:2.4000001"
         d="m 343.02389,232.97587 v -8.69955 l -4.34978,-8.69955 -17.39909,-4.34977 -21.74887,13.04932 -13.04932,26.09864 4.34977,17.3991 8.69955,4.34977 h 8.69955 l 8.69954,-4.34977 17.3991,-17.3991 -4.34978,-4.34977 -17.39909,17.39909 h -8.69955 l -4.34977,-13.04932 8.69955,-17.39909 13.04932,-13.04933 h 8.69954 v 13.04933 z" /><path
         id="path917"
         style="stroke-width:2.4000001"
         d="m 64.697831,309.91248 h 4.349774 l 4.349774,-8.69955 v -4.34977 l -8.699548,-4.34978 h -4.349773 l -4.349774,8.69955 v 4.34978 z m -47.847512,34.79819 4.349774,4.34977 21.748869,-21.74887 h 4.349774 l -26.098643,43.49774 v 4.34978 l 4.349774,4.34977 h 8.699547 l 8.699548,-4.34977 21.748869,-21.74887 -4.349773,-4.34978 -21.74887,21.74887 h -4.349774 l 26.098644,-43.49774 v -4.34977 l -8.699548,-4.34977 -13.049322,4.34977 z" /><path
         id="path919"
         style="stroke-width:2.4000001"
         d="m 73.337911,375.15909 v -13.04932 l -4.349774,-4.34978 -8.699548,4.34978 v 13.04932 l 8.699548,4.34977 h 8.699547 l 13.049322,-4.34977 8.699548,-8.69955 v -8.69955 L 95.08678,336.01112 v -8.69955 l 8.69955,-4.34977 v 13.04932 l 4.34977,4.34978 8.69955,-4.34978 V 322.9618 l -13.04932,-4.34977 -17.399098,4.34977 -4.349774,8.69955 v 8.69955 l 4.349774,17.39909 v 8.69955 l -8.699548,8.69955 z" /><path
         id="path921"
         style="stroke-width:2.4000001"
         d="m 182.16721,292.51338 -17.3991,43.49774 -21.74887,39.14797 4.34977,4.34977 h 8.69955 l 17.3991,-34.79819 13.04932,-13.04932 8.69955,-4.34978 4.34977,4.34978 -21.74887,39.14796 v 4.34978 l 4.34978,4.34977 h 8.69954 l 8.69955,-4.34977 21.74887,-21.74887 -4.34977,-4.34978 -21.74887,21.74887 h -4.34978 l 21.74887,-34.79819 V 322.9618 l -13.04932,-4.34977 -13.04932,4.34977 -8.69955,8.69955 21.74887,-43.49774 h -30.44842 v 4.34977 z" /><path
         id="path923"
         style="stroke-width:2.4000001"
         d="m 282.27997,340.3609 v -8.69955 l -4.34977,-8.69955 -17.39909,-4.34977 -21.74887,13.04932 -13.04933,26.09864 4.34978,17.3991 8.69955,4.34977 h 8.69954 l 8.69955,-4.34977 17.3991,-17.3991 -4.34978,-4.34977 -17.39909,17.39909 h -8.69955 l -4.34977,-13.04932 8.69954,-17.39909 13.04933,-13.04933 h 8.69954 v 13.04933 l -8.69954,4.34977 h -13.04933 v 4.34977 h 21.74887 z" /><path
         id="path925"
         style="stroke-width:2.4000001"
         d="m 282.33945,344.71067 4.34978,4.34977 21.74887,-21.74887 h 4.34977 l -26.09864,47.84752 4.34977,4.34977 h 8.69955 l 17.3991,-34.79819 13.04932,-8.69955 h 13.04932 l 4.34977,-13.04932 -8.69955,-4.34977 -8.69954,4.34977 -13.04932,17.3991 h -4.34978 l 8.69955,-13.04933 v -4.34977 l -4.34977,-4.34977 -13.04933,4.34977 z" /><path
         id="path927"
         style="stroke-width:2.4000001"
         d="m 399.73235,340.3609 v -8.69955 l -4.34977,-8.69955 -17.3991,-4.34977 -21.74887,13.04932 -13.04932,26.09864 4.34978,17.3991 8.69954,4.34977 h 8.69955 l 8.69955,-4.34977 17.39909,-17.3991 -4.34977,-4.34977 -17.3991,17.39909 h -8.69954 l -4.34978,-13.04932 8.69955,-17.39909 13.04932,-13.04933 h 8.69955 v 13.04933 l -8.69955,4.34977 h -13.04932 v 4.34977 h 21.74887 z" /><path
         id="path929"
         style="stroke-width:2.4000001"
         d="m 434.59004,292.51338 -4.34978,4.34978 -17.39909,56.54706 h 4.34977 l 30.44842,-56.54706 -4.34977,-4.34978 z m -21.74887,86.99548 h 4.34977 l 4.34978,-8.69955 v -4.34977 l -8.69955,-4.34977 h -4.34978 l -4.34977,8.69954 v 4.34978 z" /></g></g></svg>